HIERARCHY
ROOT Hip
{
	OFFSET 0.000000 0.000000 0.000000 
	CHANNELS 6 Xposition Yposition Zposition Xrotation Yrotation Zrotation
	JOINT LowerSpine
	{
		OFFSET 0.000000 8.345300 -5.129200 
		CHANNELS 3 Xrotation Yrotation Zrotation
		JOINT MiddleSpine
		{
			OFFSET 10.856900 0.000000 0.000000 
			CHANNELS 3 Xrotation Yrotation Zrotation
			JOINT Chest
			{
				OFFSET 15.298400 0.000000 0.000000 
				CHANNELS 3 Xrotation Yrotation Zrotation
				JOINT Neck
				{
					OFFSET 25.661800 -0.598600 0.000000 
					CHANNELS 3 Xrotation Yrotation Zrotation
					JOINT Head
					{
						OFFSET 8.882900 0.000000 0.000000 
						CHANNELS 3 Xrotation Yrotation Zrotation
						End Site
						{
							OFFSET 19.739901 0.000000 0.000000 
						}
					}
				}
				JOINT RClavicle
				{
					OFFSET 23.687799 0.000000 3.158400 
					CHANNELS 3 Xrotation Yrotation Zrotation
					JOINT RShoulder
					{
						OFFSET -15.594500 -3.948000 0.987000 
						CHANNELS 3 Xrotation Yrotation Zrotation
						JOINT RForearm
						{
							OFFSET -31.337000 0.000000 0.197400 
							CHANNELS 3 Xrotation Yrotation Zrotation
							JOINT RHand
							{
								OFFSET -26.402100 0.000000 0.000000 
								CHANNELS 3 Xrotation Yrotation Zrotation
								End Site
								{
									OFFSET -15.791900 -0.987000 0.000000 
								}
							}
						}
					}
				}
				JOINT LClavicle
				{
					OFFSET 23.687799 0.000000 -3.158400 
					CHANNELS 3 Xrotation Yrotation Zrotation
					JOINT LShoulder
					{
						OFFSET -15.594500 -3.948000 -0.987000 
						CHANNELS 3 Xrotation Yrotation Zrotation
						JOINT LForearm
						{
							OFFSET -31.337000 0.000000 -0.197400 
							CHANNELS 3 Xrotation Yrotation Zrotation
							JOINT LHand
							{
								OFFSET -26.402100 0.000000 0.000000 
								CHANNELS 3 Xrotation Yrotation Zrotation
								End Site
								{
									OFFSET -15.791900 -0.987000 0.000000 
								}
							}
						}
					}
				}
			}
		}
	}
	JOINT RThigh
	{
		OFFSET -8.882900 0.448100 0.000000 
		CHANNELS 3 Xrotation Yrotation Zrotation
		JOINT RShin
		{
			OFFSET 43.131599 0.000000 -0.493500 
			CHANNELS 3 Xrotation Yrotation Zrotation
			JOINT RFoot
			{
				OFFSET 0.000000 -44.725601 -0.404700 
				CHANNELS 3 Xrotation Yrotation Zrotation
				JOINT RToe
				{
					OFFSET 0.000000 -3.933200 12.195300 
					CHANNELS 3 Xrotation Yrotation Zrotation
					End Site
					{
						OFFSET 6.772500 0.000000 0.000000 
					}
				}
			}
		}
	}
	JOINT LThigh
	{
		OFFSET 8.882900 0.448100 0.000000 
		CHANNELS 3 Xrotation Yrotation Zrotation
		JOINT LShin
		{
			OFFSET 43.131599 0.000000 0.493500 
			CHANNELS 3 Xrotation Yrotation Zrotation
			JOINT LFoot
			{
				OFFSET 0.000000 -44.725601 0.404700 
				CHANNELS 3 Xrotation Yrotation Zrotation
				JOINT LToe
				{
					OFFSET 0.000000 -3.933200 -12.195300 
					CHANNELS 3 Xrotation Yrotation Zrotation
					End Site
					{
						OFFSET 6.772500 0.000000 0.000000 
					}
				}
			}
		}
	}
}
MOTION
Frames: 17
Frame Time: 0.016949
17.900478 91.588524 -2.928547 2.506839 -2.520769 1.868512 -89.999992 -90.000000 0.000000 -0.186762 0.121932 -0.430180 -0.618743 0.412591 -1.429811 0.000000 0.000000 0.000000 0.000000 0.000000 0.000000 89.998718 -0.180114 -87.579979 21.561300 7.584996 76.762207 36.198296 73.344498 -37.213448 0.000000 0.000000 0.000000 -90.001358 0.108817 -88.538979 -9.692982 -31.560276 69.810150 -15.397462 -69.154182 -16.689936 0.000000 0.000000 0.000000 21.236914 86.647461 -130.218979 89.639320 35.947701 90.079880 -5.902300 0.366013 0.121005 166.536713 90.000000 0.000000 21.430542 88.920090 -119.027435 -89.850731 -16.279181 90.007439 10.768043 2.410327 -1.271024 180.712128 -90.000000 0.000000 
17.748837 91.545181 -3.084441 2.784310 -2.841051 2.054099 -89.999992 -90.000000 0.000000 -0.157102 0.154400 -0.411370 -0.522739 0.518959 -1.369676 0.000000 0.000000 0.000000 0.000000 0.000000 0.000000 89.997475 -0.145556 -88.044350 20.762030 8.520132 77.023605 35.180565 73.076584 -36.212570 0.000000 0.000000 0.000000 -90.002258 0.089551 -88.798141 -9.959806 -31.586927 70.423203 -15.754683 -69.588737 -17.023212 0.000000 0.000000 0.000000 34.042107 85.989708 -144.257874 89.626320 37.011719 90.086029 -4.594114 -0.614398 -0.186099 164.993439 90.000000 0.000000 25.553274 88.850014 -123.531105 -89.849823 -16.388950 90.007271 10.878855 2.888699 -1.510408 180.565506 -90.000000 0.000000 
17.500795 91.479042 -3.343035 3.234358 -2.939446 2.143810 -89.999992 -90.000000 0.000000 -0.118834 0.162674 -0.376763 -0.407425 0.541528 -1.262747 0.000000 0.000000 0.000000 0.000000 0.000000 0.000000 89.996521 -0.101447 -88.636864 20.046528 9.344199 77.333038 34.178013 72.833862 -35.225479 0.000000 0.000000 0.000000 -90.002907 0.073881 -89.008896 -10.362055 -31.727459 70.619110 -16.197824 -70.101723 -17.438068 0.000000 0.000000 0.000000 43.771595 85.228851 -155.032547 89.622803 37.295704 90.087730 -3.829543 -1.767266 -0.544866 164.547958 90.000000 0.000000 22.351551 88.695030 -121.151001 -89.845383 -16.884329 90.007446 11.275444 2.754456 -1.469930 180.241577 -90.000000 0.000000 
17.237051 91.401596 -3.530629 3.549507 -2.775360 2.208093 -89.999992 -90.000000 0.000000 -0.080844 0.147966 -0.332029 -0.284974 0.487175 -1.113793 0.000000 0.000000 0.000000 0.000000 0.000000 0.000000 89.996208 -0.054566 -89.266510 19.537357 9.826077 77.501060 33.295120 72.796356 -34.346718 0.000000 0.000000 0.000000 -90.003098 0.064808 -89.130875 -10.928280 -32.132160 70.390900 -16.466366 -70.398781 -17.690224 0.000000 0.000000 0.000000 50.771671 84.210815 -162.501740 89.627548 36.919010 90.085373 -3.643790 -2.365465 -0.754159 165.008972 90.000000 0.000000 18.550133 88.497665 -117.985123 -89.841797 -17.283699 90.007607 11.549003 2.174171 -1.211878 180.028549 -90.000000 0.000000 
17.038809 91.308540 -3.619923 3.717236 -2.530912 2.426815 -89.999992 -90.000000 0.000000 -0.049485 0.116756 -0.283048 -0.175405 0.379948 -0.942506 0.000000 0.000000 0.000000 0.000000 0.000000 0.000000 89.996498 -0.013177 -89.822372 19.094797 10.087263 77.446617 32.638546 73.120827 -33.674313 0.000000 0.000000 0.000000 -90.002602 0.064956 -89.128593 -11.472936 -32.452621 70.173843 -16.584478 -70.525215 -17.801350 0.000000 0.000000 0.000000 55.778610 82.826859 -167.530212 89.636154 36.230087 90.081184 -3.836619 -2.878894 -0.962037 165.958588 90.000000 0.000000 21.578629 88.346886 -121.415031 -89.839317 -17.560528 90.007721 11.650592 1.724475 -1.009265 180.012726 -90.000000 0.000000 
16.840668 91.216698 -3.710017 3.923854 -2.473434 2.785651 -89.999992 -90.000000 0.000000 -0.026208 0.078123 -0.233853 -0.094589 0.253509 -0.774958 0.000000 0.000000 0.000000 0.000000 0.000000 0.000000 89.997063 0.015522 -90.207863 18.374565 10.533231 77.159386 31.942034 73.342377 -32.967674 0.000000 0.000000 0.000000 -90.001495 0.074555 -88.999168 -12.030691 -32.383514 70.083534 -16.854050 -70.808952 -18.055267 0.000000 0.000000 0.000000 59.445145 81.370110 -171.024796 89.648849 35.193344 90.075150 -4.202368 -3.394622 -1.230849 167.277008 90.000000 0.000000 27.511225 88.236526 -127.708954 -89.837975 -17.713139 90.007736 11.716217 1.542913 -0.922827 179.989807 -90.000000 0.000000 
16.538124 91.147652 -3.790612 4.143676 -2.673327 3.082982 -89.999992 -90.000000 0.000000 -0.011850 0.040470 -0.189497 -0.045850 0.139785 -0.632598 0.000000 0.000000 0.000000 0.000000 0.000000 0.000000 89.997467 0.027475 -90.368423 17.374624 11.150838 76.536766 30.964731 73.113167 -32.005127 0.000000 0.000000 0.000000 -90.000069 0.090632 -88.782616 -12.925507 -32.115665 69.704231 -17.363621 -71.323311 -18.536411 0.000000 0.000000 0.000000 62.493954 80.135078 186.511017 89.669693 33.445419 90.065643 -4.485916 -4.288522 -1.679333 168.813721 90.000000 0.000000 28.981529 88.161118 -129.356201 -89.839294 -17.577316 90.007446 11.820629 1.467638 -0.874954 179.795990 -90.000000 0.000000 
16.122383 91.074905 -3.796206 4.238906 -2.844045 3.274748 -89.999992 -90.000000 0.000000 -0.004635 0.012700 -0.154824 -0.020989 0.059196 -0.526784 0.000000 0.000000 0.000000 0.000000 0.000000 0.000000 89.997513 0.023745 -90.318436 16.478315 11.491894 75.550629 29.969669 72.854416 -31.026436 0.000000 0.000000 0.000000 -89.998695 0.108290 -88.544937 -13.988192 -31.728098 69.113998 -17.850952 -71.787903 -18.998039 0.000000 0.000000 0.000000 65.394188 78.917892 184.955048 89.699463 30.847486 90.053093 -5.066113 -4.163437 -1.722033 170.593445 90.000000 0.000000 26.848358 88.109535 -127.308548 -89.839104 -17.604967 90.007339 11.993540 1.444199 -0.853121 179.629364 -90.000000 0.000000 
15.550639 90.974960 -3.750299 4.216340 -2.848714 3.381832 -89.999992 -90.000000 0.000000 -0.000714 0.001463 -0.132009 -0.008648 0.018674 -0.461651 0.000000 0.000000 0.000000 0.000000 0.000000 0.000000 89.997154 0.003830 -90.050865 15.783554 11.596352 74.517723 29.104336 72.783737 -30.167118 0.000000 0.000000 0.000000 -89.997643 0.123004 -88.346947 -14.791868 -30.731539 68.891777 -18.181114 -72.086891 -19.311636 0.000000 0.000000 0.000000 67.708817 77.854538 184.355362 89.729584 28.103500 90.041649 -6.498281 -1.326743 -0.536748 172.748169 90.000000 0.000000 21.576984 88.073685 -122.276962 -89.833702 -18.191017 90.007980 12.233648 1.469778 -0.861936 179.636337 -90.000000 0.000000 
14.748097 90.870720 -3.696594 4.156634 -2.896334 3.332098 -89.999992 -90.000000 0.000000 0.001987 0.003393 -0.119843 -0.004601 0.016686 -0.414969 0.000000 0.000000 0.000000 0.000000 0.000000 0.000000 89.996559 -0.029124 -89.608162 15.000437 11.918809 73.676498 28.133934 72.553581 -29.211510 0.000000 0.000000 0.000000 -89.996964 0.132423 -88.220276 -15.295374 -28.597561 69.344330 -18.466196 -72.335304 -19.582920 0.000000 0.000000 0.000000 69.057236 77.539017 184.243576 89.748993 26.284388 90.034874 -8.257058 2.078169 1.051098 174.735275 90.000000 0.000000 8.373371 88.031921 -109.276001 -89.827888 -18.815907 90.008797 12.480814 1.380456 -0.812849 179.694000 -90.000000 0.000000 
13.785055 90.780670 -3.609688 4.042077 -2.927527 3.157320 -89.999992 -90.000000 0.000000 0.003975 0.009686 -0.116754 0.000598 0.045637 -0.427447 0.000000 0.000000 0.000000 0.000000 0.000000 0.000000 89.995987 -0.074314 -89.001083 14.160433 12.320536 72.862251 27.070080 72.188072 -28.169922 0.000000 0.000000 0.000000 -89.996567 0.136681 -88.162979 -15.754710 -25.907701 70.050491 -18.738459 -72.564774 -19.842447 0.000000 0.000000 0.000000 69.778526 77.922157 184.201279 89.757164 25.520775 90.032013 -9.592390 3.656388 1.856325 176.083389 90.000000 0.000000 -10.151186 87.812645 -90.676476 -89.825661 -19.055937 90.009117 12.694038 1.072304 -0.640012 179.714294 -90.000000 0.000000 
12.739013 90.708328 -3.434682 3.793363 -2.669700 2.987315 -89.999992 -90.000000 0.000000 0.002440 0.034613 -0.150473 0.008346 0.099595 -0.478618 0.000000 0.000000 0.000000 0.000000 0.000000 0.000000 89.995766 -0.130536 -88.245926 13.521389 12.400573 71.892059 26.131477 71.998528 -27.243893 0.000000 0.000000 0.000000 -89.996361 0.137421 -88.152992 -16.386366 -23.810204 70.363464 -18.970200 -72.753502 -20.063684 0.000000 0.000000 0.000000 70.380852 78.534065 184.323898 89.761726 25.103590 90.030327 -10.691735 3.722058 1.972017 177.131317 90.000000 0.000000 -25.743587 87.390373 -74.801552 -89.824669 -19.162165 90.009270 12.774994 0.651198 -0.396314 179.770462 -90.000000 0.000000 
11.593571 90.653877 -3.203176 3.451757 -2.196339 2.874789 -89.999992 -90.000000 0.000000 0.006131 0.054420 -0.175747 0.021631 0.180348 -0.575732 0.000000 0.000000 0.000000 0.000000 0.000000 0.000000 89.996208 -0.194276 -87.389740 12.964571 12.350340 70.855019 25.290886 71.937843 -26.408764 0.000000 0.000000 0.000000 -89.996239 0.136246 -88.168755 -17.221340 -22.418934 70.281677 -19.272202 -72.993919 -20.352308 0.000000 0.000000 0.000000 70.987602 79.210709 184.586426 89.765526 24.762028 90.028877 -11.776964 3.230732 1.803161 178.067429 90.000000 0.000000 -37.226608 86.868004 -63.042152 -89.822227 -19.420143 90.009727 12.600159 0.206142 -0.141555 180.014038 -90.000000 0.000000 
10.448228 90.603928 -3.020670 3.157451 -1.791766 2.828025 -89.999992 -90.000000 0.000000 0.011906 0.086001 -0.218408 0.041062 0.289417 -0.722688 0.000000 0.000000 0.000000 0.000000 0.000000 0.000000 89.997429 -0.259036 -86.519707 12.331351 12.466637 69.969177 24.548714 71.994408 -25.665607 0.000000 0.000000 0.000000 -89.996178 0.133784 -88.201836 -18.092718 -21.272106 70.107155 -19.726124 -73.344116 -20.786715 0.000000 0.000000 0.000000 71.495651 79.878273 184.658142 89.765625 24.779844 90.028564 -12.702150 2.754110 1.619255 178.668839 90.000000 0.000000 -45.562141 86.352486 -54.656548 -89.817299 -19.936403 90.010689 12.230494 -0.163144 0.066661 180.563217 -90.000000 0.000000 
9.400485 90.542686 -2.911764 2.939027 -1.636279 2.858041 -89.999992 -90.000000 0.000000 0.019714 0.124471 -0.274892 0.066748 0.416543 -0.914232 0.000000 0.000000 0.000000 0.000000 0.000000 0.000000 89.999130 -0.317015 -85.740456 11.649138 12.717163 69.230728 24.096230 72.385315 -25.193708 0.000000 0.000000 0.000000 -89.996185 0.129555 -88.258675 -18.877523 -20.194218 69.857162 -20.330196 -73.787819 -21.365982 0.000000 0.000000 0.000000 71.894142 80.453560 -175.582336 89.761421 25.215639 90.029564 -13.431638 2.541834 1.557283 178.954269 90.000000 0.000000 -51.557468 85.933891 -48.868134 -89.809410 -20.755253 90.012383 11.786189 -0.329358 0.159032 181.418289 -90.000000 0.000000 
8.359142 90.462242 -2.854758 2.774535 -1.749275 2.893577 -89.999992 -90.000000 0.000000 0.029535 0.162730 -0.340825 0.099927 0.541815 -1.136524 0.000000 0.000000 0.000000 0.000000 0.000000 0.000000 90.000778 -0.362598 -85.127693 10.867146 13.088370 68.446861 24.044397 73.156090 -25.101469 0.000000 0.000000 0.000000 -89.996307 0.121945 -88.360886 -19.604588 -19.132130 69.512047 -21.135347 -74.342064 -22.140057 0.000000 0.000000 0.000000 72.138374 81.044014 -175.888412 89.755981 25.767216 90.031029 -14.093084 2.577402 1.624048 179.196976 90.000000 0.000000 -56.723141 85.516212 -44.180424 -89.797173 -22.005274 90.015312 11.251354 -0.231125 0.105986 182.603577 -90.000000 0.000000 
7.262101 90.362991 -2.878552 2.712303 -1.934820 2.801007 -89.999992 -90.000000 0.000000 0.042444 0.194070 -0.410057 0.144426 0.644184 -1.368250 0.000000 0.000000 0.000000 0.000000 0.000000 0.000000 90.002037 -0.394949 -84.692703 10.023903 13.582638 67.732819 24.358215 74.141151 -25.362871 0.000000 0.000000 0.000000 -89.996620 0.109313 -88.530685 -20.221725 -18.208382 69.118126 -22.304579 -75.079735 -23.267714 0.000000 0.000000 0.000000 72.111656 81.818489 -176.005096 89.752113 26.163692 90.032059 -14.758160 2.591839 1.672188 179.553009 90.000000 0.000000 -62.210670 84.935402 -39.608429 -89.779022 -23.823961 90.020226 10.547322 -0.013588 -0.008980 184.208649 -90.000000 0.000000 
